<svg xmlns="http://www.w3.org/2000/svg" version="1.1" xmlns:xlink="http://www.w3.org/1999/xlink" xmlns:svgjs="http://svgjs.dev/svgjs" viewBox="0 0 800 800"><g stroke-width="2" stroke="#fd4e49" fill="none" stroke-linecap="round" transform="matrix(1,0,0,1,-5,-189.55086517333984)"><path d="M10,10C35.69444444444444,16.041666666666664,79.86111111111111,46.291666666666664,133.33333333333334,39C186.80555555555557,31.708333333333336,211.11111111111114,-26.25,266.6666666666667,-25C322.22222222222223,-23.75,344.44444444444446,41.875,400,45C455.55555555555554,48.125,477.7777777777778,-10,533.3333333333334,-10C588.8888888888889,-10,611.1111111111112,43.333333333333336,666.6666666666667,45C722.2222222222223,46.666666666666664,772.2222222222223,7.791666666666666,800,-2"></path><path d="M10,10C35.69444444444444,16.041666666666664,79.86111111111111,46.291666666666664,133.33333333333334,39C186.80555555555557,31.708333333333336,211.11111111111114,-26.25,266.6666666666667,-25C322.22222222222223,-23.75,344.44444444444446,41.875,400,45C455.55555555555554,48.125,477.7777777777778,-10,533.3333333333334,-10C588.8888888888889,-10,611.1111111111112,43.333333333333336,666.6666666666667,45C722.2222222222223,46.666666666666664,772.2222222222223,7.791666666666666,800,-2" transform="matrix(1,0,0,1,0,1159)"></path><path d="M10,10C35.69444444444444,16.041666666666664,79.86111111111111,46.291666666666664,133.33333333333334,39C186.80555555555557,31.708333333333336,211.11111111111114,-26.25,266.6666666666667,-25C322.22222222222223,-23.75,344.44444444444446,41.875,400,45C455.55555555555554,48.125,477.7777777777778,-10,533.3333333333334,-10C588.8888888888889,-10,611.1111111111112,43.333333333333336,666.6666666666667,45C722.2222222222223,46.666666666666664,772.2222222222223,7.791666666666666,800,-2" transform="matrix(1,0,0,1,0,1098)"></path><path d="M10,10C35.69444444444444,16.041666666666664,79.86111111111111,46.291666666666664,133.33333333333334,39C186.80555555555557,31.708333333333336,211.11111111111114,-26.25,266.6666666666667,-25C322.22222222222223,-23.75,344.44444444444446,41.875,400,45C455.55555555555554,48.125,477.7777777777778,-10,533.3333333333334,-10C588.8888888888889,-10,611.1111111111112,43.333333333333336,666.6666666666667,45C722.2222222222223,46.666666666666664,772.2222222222223,7.791666666666666,800,-2" transform="matrix(1,0,0,1,0,1037)"></path><path d="M10,10C35.69444444444444,16.041666666666664,79.86111111111111,46.291666666666664,133.33333333333334,39C186.80555555555557,31.708333333333336,211.11111111111114,-26.25,266.6666666666667,-25C322.22222222222223,-23.75,344.44444444444446,41.875,400,45C455.55555555555554,48.125,477.7777777777778,-10,533.3333333333334,-10C588.8888888888889,-10,611.1111111111112,43.333333333333336,666.6666666666667,45C722.2222222222223,46.666666666666664,772.2222222222223,7.791666666666666,800,-2" transform="matrix(1,0,0,1,0,976)"></path><path d="M10,10C35.69444444444444,16.041666666666664,79.86111111111111,46.291666666666664,133.33333333333334,39C186.80555555555557,31.708333333333336,211.11111111111114,-26.25,266.6666666666667,-25C322.22222222222223,-23.75,344.44444444444446,41.875,400,45C455.55555555555554,48.125,477.7777777777778,-10,533.3333333333334,-10C588.8888888888889,-10,611.1111111111112,43.333333333333336,666.6666666666667,45C722.2222222222223,46.666666666666664,772.2222222222223,7.791666666666666,800,-2" transform="matrix(1,0,0,1,0,915)"></path><path d="M10,10C35.69444444444444,16.041666666666664,79.86111111111111,46.291666666666664,133.33333333333334,39C186.80555555555557,31.708333333333336,211.11111111111114,-26.25,266.6666666666667,-25C322.22222222222223,-23.75,344.44444444444446,41.875,400,45C455.55555555555554,48.125,477.7777777777778,-10,533.3333333333334,-10C588.8888888888889,-10,611.1111111111112,43.333333333333336,666.6666666666667,45C722.2222222222223,46.666666666666664,772.2222222222223,7.791666666666666,800,-2" transform="matrix(1,0,0,1,0,854)"></path><path d="M10,10C35.69444444444444,16.041666666666664,79.86111111111111,46.291666666666664,133.33333333333334,39C186.80555555555557,31.708333333333336,211.11111111111114,-26.25,266.6666666666667,-25C322.22222222222223,-23.75,344.44444444444446,41.875,400,45C455.55555555555554,48.125,477.7777777777778,-10,533.3333333333334,-10C588.8888888888889,-10,611.1111111111112,43.333333333333336,666.6666666666667,45C722.2222222222223,46.666666666666664,772.2222222222223,7.791666666666666,800,-2" transform="matrix(1,0,0,1,0,793)"></path><path d="M10,10C35.69444444444444,16.041666666666664,79.86111111111111,46.291666666666664,133.33333333333334,39C186.80555555555557,31.708333333333336,211.11111111111114,-26.25,266.6666666666667,-25C322.22222222222223,-23.75,344.44444444444446,41.875,400,45C455.55555555555554,48.125,477.7777777777778,-10,533.3333333333334,-10C588.8888888888889,-10,611.1111111111112,43.333333333333336,666.6666666666667,45C722.2222222222223,46.666666666666664,772.2222222222223,7.791666666666666,800,-2" transform="matrix(1,0,0,1,0,732)"></path><path d="M10,10C35.69444444444444,16.041666666666664,79.86111111111111,46.291666666666664,133.33333333333334,39C186.80555555555557,31.708333333333336,211.11111111111114,-26.25,266.6666666666667,-25C322.22222222222223,-23.75,344.44444444444446,41.875,400,45C455.55555555555554,48.125,477.7777777777778,-10,533.3333333333334,-10C588.8888888888889,-10,611.1111111111112,43.333333333333336,666.6666666666667,45C722.2222222222223,46.666666666666664,772.2222222222223,7.791666666666666,800,-2" transform="matrix(1,0,0,1,0,671)"></path><path d="M10,10C35.69444444444444,16.041666666666664,79.86111111111111,46.291666666666664,133.33333333333334,39C186.80555555555557,31.708333333333336,211.11111111111114,-26.25,266.6666666666667,-25C322.22222222222223,-23.75,344.44444444444446,41.875,400,45C455.55555555555554,48.125,477.7777777777778,-10,533.3333333333334,-10C588.8888888888889,-10,611.1111111111112,43.333333333333336,666.6666666666667,45C722.2222222222223,46.666666666666664,772.2222222222223,7.791666666666666,800,-2" transform="matrix(1,0,0,1,0,610)"></path><path d="M10,10C35.69444444444444,16.041666666666664,79.86111111111111,46.291666666666664,133.33333333333334,39C186.80555555555557,31.708333333333336,211.11111111111114,-26.25,266.6666666666667,-25C322.22222222222223,-23.75,344.44444444444446,41.875,400,45C455.55555555555554,48.125,477.7777777777778,-10,533.3333333333334,-10C588.8888888888889,-10,611.1111111111112,43.333333333333336,666.6666666666667,45C722.2222222222223,46.666666666666664,772.2222222222223,7.791666666666666,800,-2" transform="matrix(1,0,0,1,0,549)"></path><path d="M10,10C35.69444444444444,16.041666666666664,79.86111111111111,46.291666666666664,133.33333333333334,39C186.80555555555557,31.708333333333336,211.11111111111114,-26.25,266.6666666666667,-25C322.22222222222223,-23.75,344.44444444444446,41.875,400,45C455.55555555555554,48.125,477.7777777777778,-10,533.3333333333334,-10C588.8888888888889,-10,611.1111111111112,43.333333333333336,666.6666666666667,45C722.2222222222223,46.666666666666664,772.2222222222223,7.791666666666666,800,-2" transform="matrix(1,0,0,1,0,488)"></path><path d="M10,10C35.69444444444444,16.041666666666664,79.86111111111111,46.291666666666664,133.33333333333334,39C186.80555555555557,31.708333333333336,211.11111111111114,-26.25,266.6666666666667,-25C322.22222222222223,-23.75,344.44444444444446,41.875,400,45C455.55555555555554,48.125,477.7777777777778,-10,533.3333333333334,-10C588.8888888888889,-10,611.1111111111112,43.333333333333336,666.6666666666667,45C722.2222222222223,46.666666666666664,772.2222222222223,7.791666666666666,800,-2" transform="matrix(1,0,0,1,0,427)"></path><path d="M10,10C35.69444444444444,16.041666666666664,79.86111111111111,46.291666666666664,133.33333333333334,39C186.80555555555557,31.708333333333336,211.11111111111114,-26.25,266.6666666666667,-25C322.22222222222223,-23.75,344.44444444444446,41.875,400,45C455.55555555555554,48.125,477.7777777777778,-10,533.3333333333334,-10C588.8888888888889,-10,611.1111111111112,43.333333333333336,666.6666666666667,45C722.2222222222223,46.666666666666664,772.2222222222223,7.791666666666666,800,-2" transform="matrix(1,0,0,1,0,366)"></path><path d="M10,10C35.69444444444444,16.041666666666664,79.86111111111111,46.291666666666664,133.33333333333334,39C186.80555555555557,31.708333333333336,211.11111111111114,-26.25,266.6666666666667,-25C322.22222222222223,-23.75,344.44444444444446,41.875,400,45C455.55555555555554,48.125,477.7777777777778,-10,533.3333333333334,-10C588.8888888888889,-10,611.1111111111112,43.333333333333336,666.6666666666667,45C722.2222222222223,46.666666666666664,772.2222222222223,7.791666666666666,800,-2" transform="matrix(1,0,0,1,0,305)"></path><path d="M10,10C35.69444444444444,16.041666666666664,79.86111111111111,46.291666666666664,133.33333333333334,39C186.80555555555557,31.708333333333336,211.11111111111114,-26.25,266.6666666666667,-25C322.22222222222223,-23.75,344.44444444444446,41.875,400,45C455.55555555555554,48.125,477.7777777777778,-10,533.3333333333334,-10C588.8888888888889,-10,611.1111111111112,43.333333333333336,666.6666666666667,45C722.2222222222223,46.666666666666664,772.2222222222223,7.791666666666666,800,-2" transform="matrix(1,0,0,1,0,244)"></path><path d="M10,10C35.69444444444444,16.041666666666664,79.86111111111111,46.291666666666664,133.33333333333334,39C186.80555555555557,31.708333333333336,211.11111111111114,-26.25,266.6666666666667,-25C322.22222222222223,-23.75,344.44444444444446,41.875,400,45C455.55555555555554,48.125,477.7777777777778,-10,533.3333333333334,-10C588.8888888888889,-10,611.1111111111112,43.333333333333336,666.6666666666667,45C722.2222222222223,46.666666666666664,772.2222222222223,7.791666666666666,800,-2" transform="matrix(1,0,0,1,0,183)"></path><path d="M10,10C35.69444444444444,16.041666666666664,79.86111111111111,46.291666666666664,133.33333333333334,39C186.80555555555557,31.708333333333336,211.11111111111114,-26.25,266.6666666666667,-25C322.22222222222223,-23.75,344.44444444444446,41.875,400,45C455.55555555555554,48.125,477.7777777777778,-10,533.3333333333334,-10C588.8888888888889,-10,611.1111111111112,43.333333333333336,666.6666666666667,45C722.2222222222223,46.666666666666664,772.2222222222223,7.791666666666666,800,-2" transform="matrix(1,0,0,1,0,122)"></path><path d="M10,10C35.69444444444444,16.041666666666664,79.86111111111111,46.291666666666664,133.33333333333334,39C186.80555555555557,31.708333333333336,211.11111111111114,-26.25,266.6666666666667,-25C322.22222222222223,-23.75,344.44444444444446,41.875,400,45C455.55555555555554,48.125,477.7777777777778,-10,533.3333333333334,-10C588.8888888888889,-10,611.1111111111112,43.333333333333336,666.6666666666667,45C722.2222222222223,46.666666666666664,772.2222222222223,7.791666666666666,800,-2" transform="matrix(1,0,0,1,0,61)"></path></g></svg>